<?xml version="1.0" encoding="iso-8859-1"?>
<!-- Generator: Adobe Illustrator 19.0.0, SVG Export Plug-In . SVG Version: 6.00 Build 0)  -->
<svg version="1.1" id="Layer_1" xmlns="http://www.w3.org/2000/svg" xmlns:xlink="http://www.w3.org/1999/xlink" x="0px" y="0px"
	 viewBox="0 0 493.661 493.661" style="enable-background:new 0 0 493.661 493.661;" xml:space="preserve">
<g>
	<g>
		<g>
			<path d="M178.912,383.429c-9.176,9.176-21.368,14.224-34.344,14.224c-26.776,0-48.568-21.792-48.568-48.568
				c0-12.976,5.048-25.168,14.224-34.344l77.088-77.088L120,170.341l-77.888,77.888C14.952,275.381,0,311.485,0,349.885
				c0,79.272,64.496,143.768,143.768,143.768c38.4,0,74.504-14.952,101.656-42.112l77.888-77.888L256,306.341L178.912,383.429z
				 M276,398.341l-6.344-6.344l-11.312,11.312l6.344,6.344l-30.576,30.576c-24.136,24.136-56.224,37.424-90.344,37.424
				C73.32,477.653,16,420.333,16,349.885c0-34.128,13.288-66.208,37.424-90.344L84,228.965l30.344,30.344l11.312-11.312
				l-30.344-30.344L120,192.965l44.688,44.688L140,262.341l-6.344-6.344l-11.312,11.312l6.344,6.344l-29.776,29.776
				C86.72,315.621,80,331.837,80,349.085c0,35.6,28.968,64.568,64.568,64.568c17.248,0,33.464-6.72,45.656-18.912L220,364.965
				l30.344,30.344l11.312-11.312l-30.344-30.344L256,328.965l44.688,44.688L276,398.341z"/>
			<path d="M200,149.653c26.472,0,48-21.528,48-48s-21.528-48-48-48s-48,21.528-48,48S173.528,149.653,200,149.653z M200,69.653
				c17.648,0,32,14.352,32,32s-14.352,32-32,32s-32-14.352-32-32S182.352,69.653,200,69.653z"/>
			<path d="M408,149.653c0-26.472-21.528-48-48-48s-48,21.528-48,48s21.528,48,48,48S408,176.125,408,149.653z M328,149.653
				c0-17.648,14.352-32,32-32s32,14.352,32,32s-14.352,32-32,32S328,167.301,328,149.653z"/>
			<path d="M400,229.653c-26.472,0-48,21.528-48,48s21.528,48,48,48s48-21.528,48-48S426.472,229.653,400,229.653z M400,309.653
				c-17.648,0-32-14.352-32-32s14.352-32,32-32s32,14.352,32,32S417.648,309.653,400,309.653z"/>
			<rect x="207.993" y="-0.962" transform="matrix(0.7071 0.7071 -0.7071 0.7071 78.583 -146.3844)" width="16" height="45.256"/>
			
				<rect x="228.402" y="25.688" transform="matrix(-0.7071 0.7071 -0.7071 -0.7071 481.3208 -131.9933)" width="79.191" height="16"/>
			
				<rect x="275.994" y="61.383" transform="matrix(-0.7071 -0.7071 0.7071 -0.7071 421.4059 353.8781)" width="16" height="56.559"/>
			<rect x="374.017" y="13.209" transform="matrix(0.7071 0.7071 -0.7071 0.7071 151.2311 -253.8316)" width="16" height="84.855"/>
			
				<rect x="392.552" y="75.604" transform="matrix(-0.7071 0.7071 -0.7071 -0.7071 772.7001 -152.8547)" width="50.911" height="16"/>
			<rect x="459.99" y="5.383" transform="matrix(0.7071 0.7071 -0.7071 0.7071 160.8746 -321.0594)" width="16" height="56.559"/>
			<rect x="444.003" y="96.687" transform="matrix(0.7071 0.7071 -0.7071 0.7071 212.7573 -286.3245)" width="16" height="33.944"/>
			
				<rect x="407.991" y="175.02" transform="matrix(-0.7071 -0.7071 0.7071 -0.7071 570.3827 631.5552)" width="16" height="45.256"/>
			
				<rect x="455.994" y="171.714" transform="matrix(0.7071 0.7071 -0.7071 0.7071 281.3199 -267.8587)" width="16" height="67.879"/>
			<rect x="459.032" y="249.647" transform="matrix(0.7071 -0.7071 0.7071 0.7071 -42.7653 412.0483)" width="33.944" height="16"/>
		</g>
	</g>
</g>
<g>
</g>
<g>
</g>
<g>
</g>
<g>
</g>
<g>
</g>
<g>
</g>
<g>
</g>
<g>
</g>
<g>
</g>
<g>
</g>
<g>
</g>
<g>
</g>
<g>
</g>
<g>
</g>
<g>
</g>
</svg>
