<?xml version="1.0" encoding="UTF-8" standalone="no"?>
<svg
   xmlns:dc="http://purl.org/dc/elements/1.1/"
   xmlns:cc="http://creativecommons.org/ns#"
   xmlns:rdf="http://www.w3.org/1999/02/22-rdf-syntax-ns#"
   xmlns:svg="http://www.w3.org/2000/svg"
   xmlns="http://www.w3.org/2000/svg"
   xmlns:sodipodi="http://sodipodi.sourceforge.net/DTD/sodipodi-0.dtd"
   xmlns:inkscape="http://www.inkscape.org/namespaces/inkscape"
   version="1.1"
   x="0px"
   y="0px"
   viewBox="0 0 100 125"
   enable-background="new 0 0 100 100"
   xml:space="preserve"
   id="svg4814"
   inkscape:version="0.91 r13725"
   sodipodi:docname="noun_79499_cc.svg"><metadata
     id="metadata4828"><rdf:RDF><cc:Work
         rdf:about=""><dc:format>image/svg+xml</dc:format><dc:type
           rdf:resource="http://purl.org/dc/dcmitype/StillImage" /></cc:Work></rdf:RDF></metadata><defs
     id="defs4826" /><sodipodi:namedview
     pagecolor="#ffffff"
     bordercolor="#666666"
     borderopacity="1"
     objecttolerance="10"
     gridtolerance="10"
     guidetolerance="10"
     inkscape:pageopacity="0"
     inkscape:pageshadow="2"
     inkscape:window-width="1366"
     inkscape:window-height="739"
     id="namedview4824"
     showgrid="false"
     inkscape:zoom="4.512"
     inkscape:cx="50.332447"
     inkscape:cy="62.5"
     inkscape:window-x="0"
     inkscape:window-y="256"
     inkscape:window-maximized="1"
     inkscape:current-layer="svg4814" /><path
     d="m 12.056738,94.113475 75,0 c 4.1,0 7.5,-3.4 7.5,-7.5 l 0,-75 c 0,-4.0999998 -3.4,-7.4999998 -7.5,-7.4999998 l -75,0 c -4.1000004,0 -7.5000004,3.4 -7.5000004,7.4999998 l 0,75 c 0,4.1 3.4,7.5 7.5000004,7.5 z m -2.5000004,-82.5 c 0,-1.4 1.1000004,-2.4999998 2.5000004,-2.4999998 l 75,0 c 1.4,0 2.5,1.0999998 2.5,2.4999998 l 0,75 c 0,1.4 -1.1,2.5 -2.5,2.5 l -75,0 c -1.4,0 -2.5000004,-1.1 -2.5000004,-2.5 l 0,-75 z"
     id="path4816"
     style="stroke:#ffffff;stroke-opacity:1;fill:#fffff9;fill-opacity:1"
     inkscape:connector-curvature="0"
     inkscape:export-xdpi="69.230766"
     inkscape:export-ydpi="69.230766" /><path
     d="M39.5,76.2c0.2,0.1,0.3,0.1,0.5,0.1h20c0.3,0,0.6-0.1,0.9-0.4l7.5-7.5c0,0,0,0,0,0c0.1-0.1,0.2-0.2,0.2-0.4c0,0,0-0.1,0-0.1  c0-0.1,0.1-0.2,0.1-0.3c0,0,0,0,0-0.1c0,0,0,0,0,0c0-0.1,0-0.3-0.1-0.4c0,0,0,0,0,0c0,0,0,0,0,0l-7.4-17.3V25c0-0.7-0.6-1.3-1.3-1.3  H40c-0.7,0-1.3,0.6-1.3,1.3v50c0,0.2,0,0.3,0.1,0.5C39,75.8,39.2,76,39.5,76.2z M59.5,73.8H43l5-5h16.5L59.5,73.8z M41.3,72V56.1  L46,67.2L41.3,72z M65.6,66.3H48.3l-6.4-15h17.3L65.6,66.3z M58.8,26.3v22.5H41.3V26.3H58.8z"
     id="path4818"
     style="stroke:#ffffff;stroke-opacity:1;fill:#fffff9;fill-opacity:1" /></svg>