<svg xmlns="http://www.w3.org/2000/svg" xmlns:xlink="http://www.w3.org/1999/xlink" version="1.1" x="0px" y="0px" viewBox="0 0 95 28.52" enable-background="new 0 0 95 22.816" xml:space="preserve"><g><path d="M64.303,22.816l-0.878-0.001c-0.782,0-2.073-1.097-3.839-3.258H35.414c-1.766,2.161-3.057,3.258-3.839,3.258l-0.878,0.001   c-3.436,0-7.151-0.244-8.654-2.048c-2.843-3.41-2.843-15.31,0-18.721C23.546,0.243,27.261,0,30.697,0l0.878,0.001   c0.782,0,2.073,1.095,3.839,3.257h24.172c1.766-2.162,3.057-3.257,3.839-3.257L64.303,0c3.436,0,7.15,0.243,8.654,2.047   c2.843,3.412,2.843,15.311,0,18.721C71.453,22.572,67.738,22.816,64.303,22.816z M30.697,1.493c-1.545,0-6.25,0-7.507,1.509   c-2.357,2.829-2.357,13.983,0,16.811c1.257,1.511,5.973,1.527,7.507,1.51l0.83-0.001c0.432-0.165,1.792-1.537,2.95-2.979   l0.224-0.279h25.6l0.225,0.279c1.157,1.441,2.519,2.813,2.95,2.979l0.828,0.001c1.546,0,6.249,0,7.508-1.51   c2.355-2.828,2.355-13.982,0-16.811c-1.259-1.509-5.962-1.509-7.508-1.509l-0.828,0.001c-0.434,0.164-1.795,1.536-2.95,2.978   L60.3,4.752H34.7l-0.224-0.28c-1.157-1.441-2.519-2.813-2.95-2.978L30.697,1.493z"/><rect x="74.347" y="10.662" width="20.653" height="1.493"/><rect y="10.662" width="20.653" height="1.493"/><g><path d="M28.589,22.77V0.3l3.457,0.109l3.013,3.215v15.597l-3,3.313L28.589,22.77z M29.583,1.327v20.378l2.005-0.138l2.474-2.73    V4.018L31.602,1.39L29.583,1.327z"/></g><g><path d="M45.675,19.024h-6.976V3.507h6.976V19.024z M39.694,18.029h4.986V4.503h-4.986V18.029z"/></g><g><rect x="50.643" y="4.254" fill="#000000" width="5.982" height="13.935"/><path d="M57.121,18.687h-6.976V3.756h6.976V18.687z M51.141,17.69h4.985V4.752h-4.985V17.69z"/></g><g><rect x="50.643" y="5.25" width="5.982" height="0.996"/></g><g><rect x="50.643" y="6.742" width="5.982" height="0.996"/></g><g><rect x="50.643" y="8.235" width="5.982" height="0.996"/></g><g><rect x="50.643" y="9.729" width="5.982" height="0.996"/></g><g><rect x="50.643" y="11.222" width="5.982" height="0.995"/></g><g><rect x="50.643" y="12.715" width="5.982" height="0.995"/></g><g><rect x="50.643" y="14.208" width="5.982" height="0.995"/></g><g><rect x="50.643" y="15.7" width="5.982" height="0.996"/></g><g><rect x="50.643" y="17.193" width="5.982" height="0.996"/></g><g><path d="M69.066,21.983h-6.978V0.771h6.978V21.983z M63.084,20.988h4.986V1.766h-4.986V20.988z"/></g><g><rect x="62.588" y="2.263" width="5.98" height="0.996"/></g><g><rect x="62.588" y="3.756" width="5.98" height="0.996"/></g><g><rect x="62.588" y="5.25" width="5.98" height="0.996"/></g><g><rect x="62.588" y="6.742" width="5.98" height="0.996"/></g><g><rect x="62.588" y="8.235" width="5.98" height="0.996"/></g><g><rect x="62.588" y="9.729" width="5.98" height="0.996"/></g><g><rect x="62.588" y="11.222" width="5.98" height="0.995"/></g><g><rect x="62.588" y="12.715" width="5.98" height="0.995"/></g><g><rect x="62.588" y="14.208" width="5.98" height="0.995"/></g><g><rect x="62.588" y="15.7" width="5.98" height="0.996"/></g><g><rect x="62.588" y="17.193" width="5.98" height="0.996"/></g><g><rect x="62.588" y="18.687" width="5.98" height="0.995"/></g><g><rect x="62.588" y="20.18" width="5.98" height="0.995"/></g></g><text x="0" y="37.816" fill="#000000" font-size="5px" font-weight="bold" font-family="'Helvetica Neue', Helvetica, Arial-Unicode, Arial, Sans-serif">Created by Devin Goodall</text><text x="0" y="42.816" fill="#000000" font-size="5px" font-weight="bold" font-family="'Helvetica Neue', Helvetica, Arial-Unicode, Arial, Sans-serif">from the Noun Project</text></svg>