<svg xmlns="http://www.w3.org/2000/svg" xmlns:xlink="http://www.w3.org/1999/xlink" version="1.1" x="0px" y="0px" viewBox="0 0 100 125" enable-background="new 0 0 100 100" xml:space="preserve"><g><path fill="#000000" d="M24.869,94.274c-0.385,0-0.773-0.111-1.112-0.338c-0.797-0.533-1.104-1.558-0.729-2.441L38.47,55h-8.873   c-0.808,0-1.536-0.485-1.846-1.231c-0.311-0.745-0.142-1.604,0.427-2.178L72.915,6.515c0.676-0.68,1.74-0.787,2.536-0.251   c0.796,0.535,1.1,1.56,0.725,2.442L60.74,45h8.868c0.807,0,1.534,0.485,1.846,1.229c0.311,0.745,0.144,1.603-0.423,2.177   L26.292,93.681C25.905,94.072,25.389,94.274,24.869,94.274z M34.399,51h7.088c0.67,0,1.297,0.336,1.667,0.896   c0.371,0.559,0.436,1.267,0.175,1.884L30.773,83.455L64.82,49h-7.104c-0.671,0-1.298-0.337-1.668-0.896   c-0.37-0.56-0.436-1.269-0.173-1.886L68.42,16.723L34.399,51z"/></g><text x="0" y="115" fill="#000000" font-size="5px" font-weight="bold" font-family="'Helvetica Neue', Helvetica, Arial-Unicode, Arial, Sans-serif">Created by Arman Nobari</text><text x="0" y="120" fill="#000000" font-size="5px" font-weight="bold" font-family="'Helvetica Neue', Helvetica, Arial-Unicode, Arial, Sans-serif">from the Noun Project</text></svg>