<?xml version="1.0" encoding="iso-8859-1"?>
<!-- Generator: Adobe Illustrator 19.0.0, SVG Export Plug-In . SVG Version: 6.00 Build 0)  -->
<svg version="1.1" id="Layer_1" xmlns="http://www.w3.org/2000/svg" xmlns:xlink="http://www.w3.org/1999/xlink" x="0px" y="0px"
	 viewBox="0 0 511.999 511.999" style="enable-background:new 0 0 511.999 511.999;" xml:space="preserve">
<g>
	<g>
		<path d="M465.087,254.834c33.653-48.195,42.08-94.33,22.98-127.412c-4.988-8.635-11.688-16.147-19.966-22.421
			c0.289-1.837,0.442-3.717,0.442-5.634c0-19.93-16.214-36.144-36.144-36.144c-14.069,0-26.277,8.085-32.246,19.848
			c-10.702-0.656-22.05-0.477-33.919,0.553C341.321,30.371,305.583,0,267.388,0c-38.196,0-73.935,30.372-98.849,83.627
			c-58.57-5.066-102.736,10.702-121.834,43.798c-4.883,8.464-8.013,17.822-9.356,27.901c-13.689,5.149-23.458,18.372-23.458,33.84
			c0,19.931,16.214,36.144,36.144,36.144c0.666,0,1.327-0.021,1.984-0.057c4.82,9.74,10.725,19.639,17.666,29.582
			c-33.656,48.191-42.083,94.326-22.981,127.411c16.755,29.027,52.786,44.732,100.921,44.73c6.738,0,13.721-0.314,20.916-0.935
			c24.914,53.25,60.651,83.619,98.845,83.619c9.797,0,19.491-1.978,28.914-5.874c6.241,5.13,14.224,8.214,22.915,8.214
			c19.93,0,36.144-16.214,36.144-36.144c0-7.282-2.172-14.063-5.891-19.743c6.029-9.052,11.645-19.109,16.769-30.072
			c7.192,0.622,14.172,0.935,20.91,0.935c48.132,0,84.168-15.705,100.921-44.729C507.171,349.161,498.745,303.026,465.087,254.834z
			 M432.4,84.555c8.166,0,14.811,6.644,14.811,14.811c0,8.166-6.644,14.811-14.811,14.811s-14.811-6.644-14.811-14.811
			C417.589,91.2,424.233,84.555,432.4,84.555z M396.592,104.23c2.384,17.637,17.527,31.281,35.808,31.281
			c10.155,0,19.339-4.215,25.911-10.981c4.583,3.987,8.37,8.517,11.283,13.56c14.099,24.421,7.441,59.958-18.111,98.823
			c-15.798-19.277-34.859-37.897-56.853-55.528c-4.275-27.863-10.873-53.68-19.669-77.001
			C382.461,103.951,389.69,103.895,396.592,104.23z M398.33,212.481c15.252,13.675,28.852,28.001,40.183,42.354
			c-11.33,14.353-24.93,28.679-40.183,42.354c1.193-13.949,1.804-28.112,1.804-42.354
			C400.133,240.593,399.522,226.429,398.33,212.481z M369.544,162.616c-11.472-8.001-23.436-15.615-35.79-22.746
			c-12.351-7.127-24.921-13.68-37.581-19.616c19.475-6.368,38.683-10.978,56.776-13.611
			C359.715,123.632,365.324,142.573,369.544,162.616z M267.388,21.333c28.197,0,55.642,23.541,76.526,65.115
			c-24.584,4.038-50.243,11.229-76.525,21.456c-26.272-10.226-51.932-17.419-76.527-21.456
			C211.745,44.874,239.192,21.333,267.388,21.333z M181.825,106.643c18.097,2.633,37.304,7.243,56.774,13.608
			c-12.69,5.948-25.265,12.502-37.59,19.62c-12.344,7.13-24.305,14.742-35.777,22.742
			C169.45,142.564,175.06,123.625,181.825,106.643z M50.036,203.977c-8.166,0-14.811-6.644-14.811-14.811
			c0-8.166,6.644-14.811,14.811-14.811S64.846,181,64.846,189.166S58.202,203.977,50.036,203.977z M59.165,154.193
			c1.177-5.794,3.18-11.188,6.017-16.105c14.096-24.432,48.197-36.432,94.636-33.719c-8.795,23.311-15.394,49.128-19.673,77.004
			c-21.973,17.609-41.029,36.228-56.84,55.523c-4.234-6.45-7.975-12.845-11.19-19.142c8.547-6.617,14.065-16.966,14.065-28.586
			C86.181,172.389,74.69,158.248,59.165,154.193z M136.446,297.189c-15.254-13.677-28.854-28.004-40.183-42.355
			c11.341-14.369,24.941-28.7,40.183-42.367c-1.193,13.952-1.804,28.12-1.804,42.367
			C134.642,269.076,135.252,283.24,136.446,297.189z M65.181,371.581c-14.102-24.426-7.444-59.963,18.11-98.825
			c15.798,19.277,34.858,37.897,56.853,55.529c4.277,27.872,10.877,53.69,19.673,77.005
			C113.383,408.001,79.279,396.005,65.181,371.581z M165.232,347.053c11.473,8.002,23.433,15.612,35.78,22.737
			c12.354,7.128,24.926,13.681,37.584,19.615c-19.469,6.368-38.675,10.978-56.771,13.612
			C175.06,386.034,169.451,367.098,165.232,347.053z M319.217,490.667c-8.166,0-14.811-6.644-14.811-14.811
			c0-8.166,6.644-14.811,14.811-14.811s14.811,6.644,14.811,14.811C334.028,484.023,327.383,490.667,319.217,490.667z
			 M332.947,442.428c-4.236-1.746-8.871-2.717-13.73-2.717c-19.93,0-36.144,16.214-36.144,36.144c0,3.33,0.462,6.554,1.31,9.618
			c-5.619,1.887-11.305,2.852-16.995,2.852c-28.196,0.001-55.642-23.54-76.526-65.113c24.594-4.039,50.251-11.232,76.522-21.459
			c26.277,10.226,51.933,17.417,76.515,21.456C340.442,430.079,336.786,436.502,332.947,442.428z M352.951,403.016
			c-18.093-2.631-37.302-7.243-56.778-13.612c12.658-5.935,25.229-12.487,37.578-19.614c12.332-7.112,24.297-14.725,35.793-22.742
			C365.325,367.096,359.717,386.033,352.951,403.016z M323.091,351.312c-18.237,10.524-36.955,19.739-55.7,27.458
			c-18.747-7.716-37.471-16.929-55.717-27.458c-18.224-10.516-35.557-22.122-51.621-34.518c-2.695-20.135-4.079-40.95-4.079-61.959
			c0-21.015,1.383-41.834,4.079-61.969c16.064-12.387,33.4-23.996,51.624-34.521c18.173-10.496,36.897-19.709,55.709-27.454
			c18.747,7.719,37.466,16.931,55.702,27.455c18.237,10.527,35.574,22.137,51.633,34.53c2.695,20.134,4.079,40.949,4.079,61.959
			s-1.383,41.825-4.079,61.958C358.61,329.219,341.272,340.826,323.091,351.312z M469.593,371.582
			c-14.098,24.423-48.204,36.42-94.636,33.71c8.797-23.315,15.396-49.132,19.672-77.005c21.996-17.633,41.056-36.254,56.854-55.53
			C477.038,311.618,483.696,347.154,469.593,371.582z"/>
	</g>
</g>
<g>
	<g>
		<path d="M267.387,204.356c-27.832,0-50.475,22.643-50.475,50.475s22.643,50.475,50.475,50.475
			c27.832,0,50.475-22.643,50.475-50.475S295.219,204.356,267.387,204.356z M267.387,283.972c-16.069,0-29.142-13.073-29.142-29.142
			s13.073-29.142,29.142-29.142c16.069,0,29.142,13.073,29.142,29.142C296.529,270.899,283.456,283.972,267.387,283.972z"/>
	</g>
</g>
<g>
</g>
<g>
</g>
<g>
</g>
<g>
</g>
<g>
</g>
<g>
</g>
<g>
</g>
<g>
</g>
<g>
</g>
<g>
</g>
<g>
</g>
<g>
</g>
<g>
</g>
<g>
</g>
<g>
</g>
</svg>
